<svg width="51" height="46" viewBox="0 0 51 46" fill="none" xmlns="http://www.w3.org/2000/svg">
<path d="M13.9333 20.4295C17.201 16.9397 20.4687 13.4455 23.7768 9.97831C24.8542 8.84967 25.3752 8.8903 26.4931 9.97831C29.8653 13.3401 33.2493 16.702 36.6451 20.0638C36.8322 20.3093 36.9803 20.5767 37.0852 20.8584C36.7607 20.9769 36.4208 21.0588 36.0736 21.1022C34.4144 21.1292 32.7604 21.1022 31.1012 21.1022H30.4791C30.4791 21.2872 30.4791 21.4407 30.4791 21.5942C30.4791 26.3932 30.4791 31.1967 30.4791 35.9956C30.507 36.19 30.4574 36.387 30.3391 36.552C30.2207 36.7171 30.0411 36.8398 29.8316 36.8986H20.7266C20.5215 36.8191 20.3516 36.6811 20.2436 36.5063C20.1356 36.3315 20.0956 36.1297 20.1297 35.9324C20.1297 31.2915 20.1297 26.6505 20.1297 22.0096V21.4453H15.0714C14.8792 21.4453 14.6819 21.4453 14.4897 21.4453C13.5893 21.355 13.382 21.0164 13.9333 20.4295Z" fill="white"/>
<path d="M25.355 45.6161C30.3572 45.6161 35.247 44.2922 39.4062 41.8119C43.5654 39.3316 46.8071 35.8062 48.7213 31.6816C50.6356 27.557 51.1365 23.0183 50.1606 18.6397C49.1847 14.261 46.7759 10.2389 43.2388 7.08206C39.7017 3.9252 35.1952 1.77536 30.2891 0.904387C25.383 0.0334134 20.2977 0.480429 15.6763 2.1889C11.0549 3.89738 7.10487 6.79058 4.3258 10.5026C1.54673 14.2147 0.0634003 18.5789 0.0634003 23.0434C0.0714322 29.0278 2.73865 34.7651 7.48 38.9968C12.2214 43.2284 18.6497 45.6089 25.355 45.6161V45.6161ZM25.355 4.53375C29.4568 4.53375 33.4665 5.61932 36.877 7.65318C40.2875 9.68705 42.9457 12.5779 44.5154 15.9601C46.0851 19.3422 46.4958 23.0639 45.6956 26.6544C44.8953 30.245 42.9201 33.5431 40.0197 36.1317C37.1193 38.7203 33.424 40.4832 29.401 41.1974C25.378 41.9116 21.208 41.545 17.4185 40.1441C13.6289 38.7431 10.3899 36.3707 8.11105 33.3268C5.83221 30.2829 4.61588 26.7042 4.61588 23.0434C4.62658 18.1373 6.81502 13.4348 10.702 9.96564C14.5891 6.49648 19.8579 4.54329 25.355 4.53375V4.53375Z" fill="white"/>
<path d="M14.4847 21.4317C14.6769 21.4317 14.8741 21.4317 15.0664 21.4317H20.1247V22.0502C20.1247 26.6912 20.1247 31.3321 20.1247 35.9731C20.0905 36.1703 20.1306 36.3721 20.2386 36.5469C20.3466 36.7217 20.5164 36.8597 20.7216 36.9392H29.8265C30.036 36.8804 30.2156 36.7577 30.334 36.5927C30.4523 36.4276 30.5019 36.2306 30.474 36.0363C30.474 31.2373 30.474 26.4383 30.474 21.6349C30.474 21.4814 30.474 21.3279 30.474 21.1428H31.0962C32.7553 21.1428 34.4094 21.1428 36.0685 21.1428C36.4158 21.0994 36.7556 21.0175 37.0801 20.899C36.9752 20.6173 36.8271 20.3499 36.6401 20.1044C33.2679 16.7366 29.8839 13.3747 26.488 10.0189C25.3701 8.90836 24.8491 8.86772 23.7717 10.0189C20.4686 13.4861 17.1959 16.9804 13.9282 20.4701C13.3819 21.0164 13.5893 21.355 14.4847 21.4317Z" fill="white"/>
</svg>
